# xmcd
#
# Track frame offsets:
#	150
#	12382
#	26557
#	40900
#	64202
#	82157
#	101997
#	112487
#	127625
#	142325
#	157307
#	169252
#	186680
#	199350
#	218117
#	238330
#
# Disc length: 3489 seconds
#
# Revision: 0
# Processed by: cddbd v1.5.2PL0 Copyright (c) Steve Scherf et al.
# Submitted via: EasyCDDAExtractor 16.0.6.1
#
DISCID=080d9f10
DTITLE=Συλλογικός δίσκος - Ρεμπέτικο στου Θωμά 5-Ρεμπέτης της Βαγδάτης
DYEAR=2001
DGENRE=Ποικίλη
TTITLE0=Χορωδία - Μάγισσα της Αραπιάς [Β. Τσιτσάνης]
TTITLE1=Μπαγιώκης Γιώργος - Ζαχαρένιο χανουμάκι [Π. Τούντας-Δερέμπεης]
TTITLE2=Χριστοπούλου Χρυσούλα - Γκιούλ μπαχάρ [Β. Τσιτσάνης]
TTITLE3=Μπαγιώκης Γιώργος-Φέρρης Κώστας - Μαντουμπάλα [Σ. Καζαντζίδης]
TTITLE4=Λεονάρδου Σωτηρία - Τσιγγάνα μαυρομάτα [Μαρτίνο-Λώρης]
TTITLE5=Μπαγιώκης Γιώργος-Δασκαλάκη Ειρήνη - Γαρούφαλλο στ' αυτί [Μ. Χατζιδάκι
TTITLE5=ς-Α. Σακελλάριος]
TTITLE6=Δασκαλάκη Ειρήνη - Τσιγγάνα Μαρία [Μ. Χιώτης]
TTITLE7=Χριστοπούλου Χρυσούλα - Κατσιβέλα [Γ. Μητσάκης]
TTITLE8=Μαραγκόπουλος Νίκος - Μάγισσα [Α. Χατζηχρήστος-Χ. Βασιλειάδης]
TTITLE9=Χορωδία - Τρελλός τσιγγάνος [Ι. Γεωργακοπούλου-Χ. Βασιλειάδης]
TTITLE10=Μαραγκόπουλος Νίκος - Ρίξε τσιγγάνα τα χαρτιά [Μ. Βαμβακάρης-Γ. Φωτίδ
TTITLE10=ας]
TTITLE11=Χορωδία - Ατσιγγάνα [Γ. Μπάτης]
TTITLE12=Χριστοπούλου Χρυσούλα - Το χαρέμι στο χαμάμ [Α. Δελιάς]
TTITLE13=Δασκαλάκη Ειρήνη - Μπαγλαμάδες [παραδοσιακό]
TTITLE14=Χορωδία - Μουσουρλού μ' [ανώνυμος]
TTITLE15=Άνευ ερμηνευτού - Έντα όμρι [Αμντέλ Ουαχάμπ]
EXTD=
EXTT0=
EXTT1=
EXTT2=
EXTT3=
EXTT4=
EXTT5=
EXTT6=
EXTT7=
EXTT8=
EXTT9=
EXTT10=
EXTT11=
EXTT12=
EXTT13=
EXTT14=
EXTT15=
PLAYORDER=
